<svg xmlns="http://www.w3.org/2000/svg" viewBox="0 0 512 512">
  <rect width="512" height="512" rx="96" fill="#0f172a"/>
  <path d="M112 132h288v248H112z" fill="#ffffff" opacity="0.12"/>
  <path d="M150 112h212a28 28 0 0 1 28 28v232a28 28 0 0 1-28 28H150a28 28 0 0 1-28-28V140a28 28 0 0 1 28-28z" fill="#ffffff"/>
  <circle cx="208" cy="208" r="48" fill="#2563eb"/>
  <path d="M162 326c10-48 41-74 88-74s78 26 88 74" fill="#2563eb"/>
  <path d="M290 182h54v24h-54zM290 228h54v24h-54zM168 348h176v24H168z" fill="#0f172a"/>
</svg>